<?xml version="1.0" standalone="no"?>
<!DOCTYPE svg PUBLIC "-//W3C//DTD SVG 20010904//EN"
 "http://www.w3.org/TR/2001/REC-SVG-20010904/DTD/svg10.dtd">
<svg version="1.0" xmlns="http://www.w3.org/2000/svg"
 width="500.000000pt" height="500.000000pt" viewBox="0 0 500.000000 500.000000"
 preserveAspectRatio="xMidYMid meet">

<g transform="translate(0.000000,500.000000) scale(0.100000,-0.100000)"
fill="#000000" stroke="none">
<path d="M670 3071 c-6 -12 -10 -101 -10 -220 0 -168 2 -202 16 -215 13 -13
44 -16 188 -16 120 0 176 4 184 12 8 8 12 61 12 174 l0 162 -69 61 -69 61
-120 0 c-110 0 -122 -2 -132 -19z m242 -63 c3 -51 4 -53 33 -56 17 -1 45 -5
63 -8 l33 -5 -3 -142 -3 -142 -172 -3 -173 -2 0 205 0 205 109 0 110 0 3 -52z
m78 -12 c11 -14 8 -16 -19 -16 -27 0 -31 4 -31 25 0 22 3 24 18 16 10 -5 24
-17 32 -25z"/>
<path d="M760 2905 c0 -11 11 -15 40 -15 29 0 40 4 40 15 0 11 -11 15 -40 15
-29 0 -40 -4 -40 -15z"/>
<path d="M760 2825 c0 -13 15 -15 100 -13 134 4 135 22 3 26 -88 2 -103 0
-103 -13z"/>
<path d="M755 2750 c-3 -5 0 -13 8 -15 24 -10 202 -1 202 10 0 14 -201 19
-210 5z"/>
<path d="M1170 2945 c0 -12 16 -15 90 -15 l90 0 0 -137 -1 -138 -20 28 c-21
28 -39 35 -39 16 0 -14 63 -89 75 -89 12 0 75 75 75 89 0 20 -17 12 -36 -16
l-19 -28 -5 150 -5 150 -102 3 c-87 2 -103 0 -103 -13z"/>
<path d="M1912 2758 c-16 -16 -15 -33 3 -51 17 -18 51 -12 59 10 15 37 -34 69
-62 41z"/>
<path d="M3675 2758 c-28 -16 -35 -28 -35 -65 0 -23 -5 -33 -15 -33 -9 0 -15
-9 -15 -25 0 -16 6 -25 15 -25 12 0 15 -18 15 -105 l0 -105 30 0 30 0 0 105 0
105 40 0 c36 0 40 3 40 25 0 23 -4 25 -41 25 -38 0 -40 1 -37 28 3 24 7 27 40
26 29 -1 39 3 44 19 4 12 1 23 -7 28 -20 12 -80 10 -104 -3z"/>
<path d="M1600 2576 l0 -176 30 0 30 0 0 65 0 65 45 0 c55 0 110 21 124 48 15
27 13 103 -2 123 -22 29 -60 41 -144 47 l-83 5 0 -177z m168 102 c17 -17 15
-63 -4 -78 -8 -8 -34 -14 -57 -14 l-42 -1 -3 53 -3 52 48 0 c27 0 54 -5 61
-12z"/>
<path d="M2892 2733 c-58 -28 -77 -67 -77 -158 0 -91 14 -122 68 -155 61 -38
164 -21 201 32 22 31 20 43 -9 56 -22 10 -26 9 -40 -17 -26 -51 -106 -50 -138
1 -36 56 -27 153 16 183 41 29 127 12 127 -26 0 -5 14 -2 30 6 26 14 29 19 20
36 -29 54 -130 76 -198 42z"/>
<path d="M2343 2713 c-7 -2 -13 -16 -13 -29 0 -19 -5 -24 -24 -24 -18 0 -23
-5 -23 -25 0 -20 5 -25 23 -25 23 0 24 -2 24 -85 0 -101 15 -125 78 -125 47 0
61 10 52 35 -4 13 -16 19 -36 20 l-29 0 -3 78 -3 77 36 0 c31 0 35 3 35 25 0
22 -4 25 -35 25 -32 0 -35 2 -35 30 0 30 -14 37 -47 23z"/>
<path d="M3843 2713 c-7 -2 -13 -16 -13 -29 0 -17 -6 -24 -20 -24 -15 0 -20
-7 -20 -25 0 -18 5 -25 19 -25 17 0 19 -9 22 -84 5 -103 20 -126 85 -126 47 0
59 10 49 41 -5 14 -12 18 -26 14 -36 -12 -49 12 -49 86 l0 69 35 0 c31 0 35 3
35 25 0 22 -4 25 -35 25 -32 0 -35 2 -35 30 0 30 -14 37 -47 23z"/>
<path d="M1910 2530 l0 -130 30 0 30 0 0 130 0 130 -30 0 -30 0 0 -130z"/>
<path d="M2089 2645 c-30 -16 -59 -70 -59 -109 0 -40 24 -90 55 -114 40 -32
113 -30 149 3 31 29 33 51 7 60 -13 4 -27 -1 -40 -14 -27 -27 -66 -27 -85 1
-21 29 -21 102 0 122 19 20 68 21 84 2 9 -12 17 -13 36 -4 31 14 30 22 -2 47
-32 25 -105 28 -145 6z"/>
<path d="M2546 2630 c-59 -52 -57 -152 5 -204 44 -37 117 -37 159 2 38 33 53
91 39 144 -23 87 -133 119 -203 58z m126 -37 c26 -23 25 -96 -2 -123 -27 -27
-65 -26 -84 2 -21 29 -21 102 0 122 20 21 63 20 86 -1z"/>
<path d="M3160 2530 l0 -130 30 0 30 0 0 90 c0 84 2 91 24 105 14 9 33 15 43
13 13 -2 19 4 21 25 3 24 0 27 -27 27 -20 0 -35 -8 -45 -22 l-16 -22 0 22 c0
18 -6 22 -30 22 l-30 0 0 -130z"/>
<path d="M3400 2653 c-8 -3 -23 -12 -32 -20 -13 -12 -15 -19 -6 -33 11 -16 14
-17 32 -4 11 8 37 14 58 14 31 0 38 -4 38 -19 0 -16 -13 -24 -60 -37 -88 -24
-113 -72 -69 -128 26 -33 86 -37 114 -6 18 20 18 20 33 -1 10 -14 23 -19 45
-17 38 4 45 21 18 45 -18 15 -21 29 -21 95 0 98 -15 118 -87 117 -27 0 -55 -3
-63 -6z m90 -151 c0 -36 -31 -66 -58 -58 -44 14 -36 61 12 75 46 13 46 13 46
-17z"/>
<path d="M972 2548 c-13 -13 -18 -411 -6 -442 5 -14 36 -16 243 -16 171 0 240
3 249 12 17 17 17 429 0 446 -17 17 -469 17 -486 0z m468 -165 l-1 -148 -50
54 -50 54 -63 -62 -62 -61 -29 30 c-16 16 -34 30 -40 30 -6 0 -27 -16 -46 -36
-18 -20 -51 -49 -71 -66 l-38 -30 0 191 0 191 225 0 225 0 0 -147z"/>
<path d="M1052 2464 c-42 -29 -15 -114 37 -114 23 0 59 29 62 50 8 68 -44 102
-99 64z m72 -37 c9 -15 7 -21 -8 -32 -35 -26 -74 13 -44 43 16 16 38 12 52
-11z"/>
<path d="M676 2493 c-3 -3 -6 -57 -6 -120 l0 -113 95 0 c96 0 114 -8 75 -32
-19 -12 -28 -38 -12 -38 4 0 27 18 52 40 l45 39 -40 40 c-36 38 -65 52 -65 33
0 -5 9 -17 20 -27 11 -10 17 -21 14 -24 -3 -3 -39 -6 -80 -6 l-74 0 0 102 c0
93 -7 123 -24 106z"/>
</g>
</svg>
